<svg width="818" height="456" xmlns="http://www.w3.org/2000/svg">
 <!-- Created with Method Draw - http://github.com/duopixel/Method-Draw/ -->
 <g>
  <title>background</title>
  <rect fill="none" id="canvas_background" height="458" width="820" y="-1" x="-1"/>
  <g display="none" overflow="visible" y="0" x="0" height="100%" width="100%" id="canvasGrid">
   <rect fill="url(#gridpattern)" stroke-width="0" y="0" x="0" height="100%" width="100%"/>
  </g>
 </g>
 <g>
  <title>Layer 1</title>
  <rect stroke="#000" id="svg_9" height="10" width="10" y="433" x="674" stroke-width="0" fill="#28343f"/>
  <rect stroke="#000" id="svg_10" height="10" width="10" y="433" x="694" stroke-width="0" fill="#28343f"/>
  <rect stroke="#000" id="svg_11" height="10" width="10" y="433" x="714" stroke-width="0" fill="#28343f"/>
  <rect stroke="#000" id="svg_30" height="10" width="10" y="413" x="674" stroke-width="0" fill="#28343f"/>
  <rect stroke="#000" id="svg_31" height="10" width="10" y="413" x="694" stroke-width="0" fill="#28343f"/>
  <rect stroke="#000" id="svg_32" height="10" width="10" y="413" x="714" stroke-width="0" fill="#28343f"/>
  <rect stroke="#000" id="svg_34" height="10" width="10" y="413" x="754" stroke-width="0" fill="#28343f"/>
  <rect stroke="#000" id="svg_35" height="10" width="10" y="413" x="774" stroke-width="0" fill="#28343f"/>
  <rect stroke="#000" id="svg_36" height="10" width="10" y="413" x="794" stroke-width="0" fill="#1f2830"/>
  <rect stroke="#000" id="svg_61" height="10" width="10" y="433" x="294" stroke-width="0" fill="#28343f"/>
  <rect stroke="#000" id="svg_62" height="10" width="10" y="433" x="314" stroke-width="0" fill="#28343f"/>
  <rect stroke="#000" id="svg_63" height="10" width="10" y="433" x="574" stroke-width="0" fill="#28343f"/>
  <rect stroke="#000" id="svg_65" height="10" width="10" y="433" x="614" stroke-width="0" fill="#28343f"/>
  <rect stroke="#000" id="svg_66" height="10" width="10" y="433" x="634" stroke-width="0" fill="#28343f"/>
  <rect stroke="#000" id="svg_67" height="10" width="10" y="433" x="654" stroke-width="0" fill="#28343f"/>
  <rect stroke="#000" id="svg_68" height="10" width="10" y="413" x="294" stroke-width="0" fill="#28343f"/>
  <rect stroke="#000" id="svg_69" height="10" width="10" y="413" x="314" stroke-width="0" fill="#28343f"/>
  <rect stroke="#000" id="svg_70" height="10" width="10" y="413" x="574" stroke-width="0" fill="#28343f"/>
  <rect stroke="#000" id="svg_72" height="10" width="10" y="413" x="614" stroke-width="0" fill="#1f2830"/>
  <rect stroke="#000" id="svg_73" height="10" width="10" y="413" x="634" stroke-width="0" fill="#28343f"/>
  <rect stroke="#000" id="svg_74" height="10" width="10" y="413" x="654" stroke-width="0" fill="#28343f"/>
  <rect stroke="#000" id="svg_79" height="10" width="10" y="433" x="594" stroke-width="0" fill="#28343f"/>
  <rect stroke="#000" id="svg_92" height="10" width="10" y="433" x="774" stroke-width="0" fill="#28343f"/>
  <rect stroke="#000" id="svg_98" height="10" width="10" y="433" x="754" stroke-width="0" fill="#28343f"/>
  <rect stroke="#000" id="svg_119" height="10" width="10" y="433" x="794" stroke-width="0" fill="#28343f"/>
  <rect stroke="#000" id="svg_548" height="10" width="10" y="33" x="694" stroke-width="0" fill="#1f2830"/>
  <rect stroke="#000" id="svg_574" height="10" width="10" y="33" x="794" stroke-width="0" fill="#28343f"/>
  <rect stroke="#000" id="svg_575" height="10" width="10" y="73" x="674" stroke-width="0" fill="#28343f"/>
  <rect stroke="#000" id="svg_576" height="10" width="10" y="73" x="694" stroke-width="0" fill="#28343f"/>
  <rect stroke="#000" id="svg_580" height="10" width="10" y="53" x="694" stroke-width="0" fill="#28343f"/>
  <rect stroke="#000" id="svg_600" height="10" width="10" y="73" x="774" stroke-width="0" fill="#28343f"/>
  <rect stroke="#000" id="svg_602" height="10" width="10" y="73" x="794" stroke-width="0" fill="#28343f"/>
  <rect stroke="#000" id="svg_603" height="10" width="10" y="113" x="674" stroke-width="0" fill="#28343f"/>
  <rect stroke="#000" id="svg_604" height="10" width="10" y="113" x="694" stroke-width="0" fill="#28343f"/>
  <rect stroke="#000" id="svg_612" height="10" width="10" y="93" x="774" stroke-width="0" fill="#28343f"/>
  <rect stroke="#000" id="svg_613" height="10" width="10" y="93" x="794" stroke-width="0" fill="#1f2830"/>
  <rect stroke="#000" id="svg_628" height="10" width="10" y="113" x="774" stroke-width="0" fill="#28343f"/>
  <rect stroke="#000" id="svg_630" height="10" width="10" y="113" x="794" stroke-width="0" fill="#28343f"/>
  <rect stroke="#000" id="svg_631" height="10" width="10" y="153" x="674" stroke-width="0" fill="#28343f"/>
  <rect stroke="#000" id="svg_632" height="10" width="10" y="153" x="694" stroke-width="0" fill="#28343f"/>
  <rect stroke="#000" id="svg_634" height="10" width="10" y="153" x="734" stroke-width="0" fill="#28343f"/>
  <rect stroke="#000" id="svg_635" height="10" width="10" y="133" x="674" stroke-width="0" fill="#28343f"/>
  <rect stroke="#000" id="svg_636" height="10" width="10" y="133" x="694" stroke-width="0" fill="#28343f"/>
  <rect stroke="#000" id="svg_638" height="10" width="10" y="133" x="734" stroke-width="0" fill="#28343f"/>
  <rect stroke="#000" id="svg_639" height="10" width="10" y="133" x="754" stroke-width="0" fill="#28343f"/>
  <rect stroke="#000" id="svg_640" height="10" width="10" y="133" x="774" stroke-width="0" fill="#28343f"/>
  <rect stroke="#000" id="svg_644" height="10" width="10" y="153" x="574" stroke-width="0" fill="#28343f"/>
  <rect stroke="#000" id="svg_646" height="10" width="10" y="153" x="634" stroke-width="0" fill="#28343f"/>
  <rect stroke="#000" id="svg_647" height="10" width="10" y="153" x="654" stroke-width="0" fill="#28343f"/>
  <rect stroke="#000" id="svg_655" height="10" width="10" y="153" x="594" stroke-width="0" fill="#28343f"/>
  <rect stroke="#000" id="svg_656" height="10" width="10" y="153" x="774" stroke-width="0" fill="#28343f"/>
  <rect stroke="#000" id="svg_657" height="10" width="10" y="153" x="754" stroke-width="0" fill="#28343f"/>
  <rect stroke="#000" id="svg_660" height="10" width="10" y="193" x="694" stroke-width="0" fill="#28343f"/>
  <rect stroke="#000" id="svg_661" height="10" width="10" y="193" x="714" stroke-width="0" fill="#28343f"/>
  <rect stroke="#000" id="svg_662" height="10" width="10" y="193" x="734" stroke-width="0" fill="#28343f"/>
  <rect stroke="#000" id="svg_664" height="10" width="10" y="173" x="694" stroke-width="0" fill="#28343f"/>
  <rect stroke="#000" id="svg_666" height="10" width="10" y="173" x="734" stroke-width="0" fill="#28343f"/>
  <rect stroke="#000" id="svg_667" height="10" width="10" y="173" x="754" stroke-width="0" fill="#28343f"/>
  <rect stroke="#000" id="svg_668" height="10" width="10" y="173" x="774" stroke-width="0" fill="#28343f"/>
  <rect stroke="#000" id="svg_669" height="10" width="10" y="173" x="794" stroke-width="0" fill="#28343f"/>
  <rect stroke="#000" id="svg_672" height="10" width="10" y="193" x="574" stroke-width="0" fill="#28343f"/>
  <rect stroke="#000" id="svg_673" height="10" width="10" y="193" x="614" stroke-width="0" fill="#28343f"/>
  <rect stroke="#000" id="svg_674" height="10" width="10" y="193" x="634" stroke-width="0" fill="#28343f"/>
  <rect stroke="#000" id="svg_675" height="10" width="10" y="193" x="654" stroke-width="0" fill="#28343f"/>
  <rect stroke="#000" id="svg_678" height="10" width="10" y="173" x="574" stroke-width="0" fill="#28343f"/>
  <rect stroke="#000" id="svg_679" height="10" width="10" y="173" x="594" stroke-width="0" fill="#28343f"/>
  <rect stroke="#000" id="svg_681" height="10" width="10" y="173" x="634" stroke-width="0" fill="#28343f"/>
  <rect stroke="#000" id="svg_683" height="10" width="10" y="193" x="594" stroke-width="0" fill="#28343f"/>
  <rect stroke="#000" id="svg_684" height="10" width="10" y="193" x="774" stroke-width="0" fill="#28343f"/>
  <rect stroke="#000" id="svg_685" height="10" width="10" y="193" x="754" stroke-width="0" fill="#1f2830"/>
  <rect stroke="#000" id="svg_686" height="10" width="10" y="193" x="794" stroke-width="0" fill="#28343f"/>
  <rect stroke="#000" id="svg_687" height="10" width="10" y="233" x="674" stroke-width="0" fill="#1f2830"/>
  <rect stroke="#000" id="svg_690" height="10" width="10" y="233" x="734" stroke-width="0" fill="#28343f"/>
  <rect stroke="#000" id="svg_691" height="10" width="10" y="213" x="674" stroke-width="0" fill="#28343f"/>
  <rect stroke="#000" id="svg_692" height="10" width="10" y="213" x="694" stroke-width="0" fill="#28343f"/>
  <rect stroke="#000" id="svg_693" height="10" width="10" y="213" x="714" stroke-width="0" fill="#28343f"/>
  <rect stroke="#000" id="svg_694" height="10" width="10" y="213" x="734" stroke-width="0" fill="#28343f"/>
  <rect stroke="#000" id="svg_695" height="10" width="10" y="213" x="754" stroke-width="0" fill="#28343f"/>
  <rect stroke="#000" id="svg_696" height="10" width="10" y="213" x="774" stroke-width="0" fill="#28343f"/>
  <rect stroke="#000" id="svg_697" height="10" width="10" y="213" x="794" stroke-width="0" fill="#28343f"/>
  <rect stroke="#000" id="svg_700" height="10" width="10" y="233" x="574" stroke-width="0" fill="#28343f"/>
  <rect stroke="#000" id="svg_701" height="10" width="10" y="233" x="614" stroke-width="0" fill="#28343f"/>
  <rect stroke="#000" id="svg_702" height="10" width="10" y="233" x="634" stroke-width="0" fill="#28343f"/>
  <rect stroke="#000" id="svg_703" height="10" width="10" y="233" x="654" stroke-width="0" fill="#28343f"/>
  <rect stroke="#000" id="svg_706" height="10" width="10" y="213" x="574" stroke-width="0" fill="#28343f"/>
  <rect stroke="#000" id="svg_708" height="10" width="10" y="213" x="614" stroke-width="0" fill="#28343f"/>
  <rect stroke="#000" id="svg_709" height="10" width="10" y="213" x="634" stroke-width="0" fill="#28343f"/>
  <rect stroke="#000" id="svg_710" height="10" width="10" y="213" x="654" stroke-width="0" fill="#28343f"/>
  <rect stroke="#000" id="svg_711" height="10" width="10" y="233" x="594" stroke-width="0" fill="#28343f"/>
  <rect stroke="#000" id="svg_712" height="10" width="10" y="233" x="774" stroke-width="0" fill="#28343f"/>
  <rect stroke="#000" id="svg_714" height="10" width="10" y="233" x="794" stroke-width="0" fill="#28343f"/>
  <rect stroke="#000" id="svg_715" height="10" width="10" y="273" x="674" stroke-width="0" fill="#28343f"/>
  <rect stroke="#000" id="svg_718" height="10" width="10" y="273" x="734" stroke-width="0" fill="#28343f"/>
  <rect stroke="#000" id="svg_719" height="10" width="10" y="253" x="674" stroke-width="0" fill="#28343f"/>
  <rect stroke="#000" id="svg_722" height="10" width="10" y="253" x="734" stroke-width="0" fill="#28343f"/>
  <rect stroke="#000" id="svg_723" height="10" width="10" y="253" x="754" stroke-width="0" fill="#28343f"/>
  <rect stroke="#000" id="svg_724" height="10" width="10" y="253" x="774" stroke-width="0" fill="#28343f"/>
  <rect stroke="#000" id="svg_725" height="10" width="10" y="253" x="794" stroke-width="0" fill="#28343f"/>
  <rect stroke="#000" id="svg_728" height="10" width="10" y="273" x="574" stroke-width="0" fill="#28343f"/>
  <rect stroke="#000" id="svg_729" height="10" width="10" y="273" x="614" stroke-width="0" fill="#28343f"/>
  <rect stroke="#000" id="svg_730" height="10" width="10" y="273" x="634" stroke-width="0" fill="#28343f"/>
  <rect stroke="#000" id="svg_731" height="10" width="10" y="273" x="654" stroke-width="0" fill="#28343f"/>
  <rect stroke="#000" id="svg_732" height="10" width="10" y="253" x="294" stroke-width="0" fill="#28343f"/>
  <rect stroke="#000" id="svg_733" height="10" width="10" y="253" x="314" stroke-width="0" fill="#28343f"/>
  <rect stroke="#000" id="svg_734" height="10" width="10" y="253" x="574" stroke-width="0" fill="#28343f"/>
  <rect stroke="#000" id="svg_735" height="10" width="10" y="253" x="594" stroke-width="0" fill="#1f2830"/>
  <rect stroke="#000" id="svg_736" height="10" width="10" y="253" x="614" stroke-width="0" fill="#28343f"/>
  <rect stroke="#000" id="svg_737" height="10" width="10" y="253" x="634" stroke-width="0" fill="#28343f"/>
  <rect stroke="#000" id="svg_740" height="10" width="10" y="273" x="774" stroke-width="0" fill="#28343f"/>
  <rect stroke="#000" id="svg_741" height="10" width="10" y="273" x="754" stroke-width="0" fill="#1f2830"/>
  <rect stroke="#000" id="svg_742" height="10" width="10" y="273" x="794" stroke-width="0" fill="#28343f"/>
  <rect stroke="#000" id="svg_743" height="10" width="10" y="313" x="674" stroke-width="0" fill="#28343f"/>
  <rect stroke="#000" id="svg_744" height="10" width="10" y="313" x="694" stroke-width="0" fill="#28343f"/>
  <rect stroke="#000" id="svg_745" height="10" width="10" y="313" x="714" stroke-width="0" fill="#28343f"/>
  <rect stroke="#000" id="svg_746" height="10" width="10" y="313" x="734" stroke-width="0" fill="#28343f"/>
  <rect stroke="#000" id="svg_747" height="10" width="10" y="293" x="674" stroke-width="0" fill="#28343f"/>
  <rect stroke="#000" id="svg_748" height="10" width="10" y="293" x="694" stroke-width="0" fill="#1f2830"/>
  <rect stroke="#000" id="svg_756" height="10" width="10" y="313" x="574" stroke-width="0" fill="#28343f"/>
  <rect stroke="#000" id="svg_758" height="10" width="10" y="313" x="634" stroke-width="0" fill="#28343f"/>
  <rect stroke="#000" id="svg_759" height="10" width="10" y="313" x="654" stroke-width="0" fill="#28343f"/>
  <rect stroke="#000" id="svg_762" height="10" width="10" y="293" x="574" stroke-width="0" fill="#28343f"/>
  <rect stroke="#000" id="svg_764" height="10" width="10" y="293" x="614" stroke-width="0" fill="#28343f"/>
  <rect stroke="#000" id="svg_765" height="10" width="10" y="293" x="634" stroke-width="0" fill="#28343f"/>
  <rect stroke="#000" id="svg_766" height="10" width="10" y="293" x="654" stroke-width="0" fill="#28343f"/>
  <rect stroke="#000" id="svg_767" height="10" width="10" y="313" x="594" stroke-width="0" fill="#28343f"/>
  <rect stroke="#000" id="svg_768" height="10" width="10" y="313" x="774" stroke-width="0" fill="#28343f"/>
  <rect stroke="#000" id="svg_769" height="10" width="10" y="313" x="754" stroke-width="0" fill="#28343f"/>
  <rect stroke="#000" id="svg_770" height="10" width="10" y="313" x="794" stroke-width="0" fill="#28343f"/>
  <rect stroke="#000" id="svg_771" height="10" width="10" y="353" x="674" stroke-width="0" fill="#28343f"/>
  <rect stroke="#000" id="svg_772" height="10" width="10" y="353" x="694" stroke-width="0" fill="#28343f"/>
  <rect stroke="#000" id="svg_773" height="10" width="10" y="353" x="714" stroke-width="0" fill="#28343f"/>
  <rect stroke="#000" id="svg_774" height="10" width="10" y="353" x="734" stroke-width="0" fill="#28343f"/>
  <rect stroke="#000" id="svg_775" height="10" width="10" y="333" x="674" stroke-width="0" fill="#28343f"/>
  <rect stroke="#000" id="svg_777" height="10" width="10" y="333" x="714" stroke-width="0" fill="#28343f"/>
  <rect stroke="#000" id="svg_778" height="10" width="10" y="333" x="734" stroke-width="0" fill="#28343f"/>
  <rect stroke="#000" id="svg_779" height="10" width="10" y="333" x="754" stroke-width="0" fill="#28343f"/>
  <rect stroke="#000" id="svg_780" height="10" width="10" y="333" x="774" stroke-width="0" fill="#28343f"/>
  <rect stroke="#000" id="svg_781" height="10" width="10" y="333" x="794" stroke-width="0" fill="#28343f"/>
  <rect stroke="#000" id="svg_784" height="10" width="10" y="353" x="574" stroke-width="0" fill="#28343f"/>
  <rect stroke="#000" id="svg_785" height="10" width="10" y="353" x="614" stroke-width="0" fill="#28343f"/>
  <rect stroke="#000" id="svg_786" height="10" width="10" y="353" x="634" stroke-width="0" fill="#28343f"/>
  <rect stroke="#000" id="svg_787" height="10" width="10" y="353" x="654" stroke-width="0" fill="#28343f"/>
  <rect stroke="#000" id="svg_790" height="10" width="10" y="333" x="574" stroke-width="0" fill="#28343f"/>
  <rect stroke="#000" id="svg_791" height="10" width="10" y="333" x="594" stroke-width="0" fill="#28343f"/>
  <rect stroke="#000" id="svg_792" height="10" width="10" y="333" x="614" stroke-width="0" fill="#28343f"/>
  <rect stroke="#000" id="svg_793" height="10" width="10" y="333" x="634" stroke-width="0" fill="#28343f"/>
  <rect stroke="#000" id="svg_794" height="10" width="10" y="333" x="654" stroke-width="0" fill="#28343f"/>
  <rect stroke="#000" id="svg_795" height="10" width="10" y="353" x="594" stroke-width="0" fill="#28343f"/>
  <rect stroke="#000" id="svg_796" height="10" width="10" y="353" x="774" stroke-width="0" fill="#28343f"/>
  <rect stroke="#000" id="svg_797" height="10" width="10" y="353" x="754" stroke-width="0" fill="#1f2830"/>
  <rect stroke="#000" id="svg_798" height="10" width="10" y="353" x="794" stroke-width="0" fill="#28343f"/>
  <rect stroke="#000" id="svg_799" height="10" width="10" y="393" x="674" stroke-width="0" fill="#28343f"/>
  <rect stroke="#000" id="svg_800" height="10" width="10" y="393" x="694" stroke-width="0" fill="#28343f"/>
  <rect stroke="#000" id="svg_801" height="10" width="10" y="393" x="714" stroke-width="0" fill="#28343f"/>
  <rect stroke="#000" id="svg_802" height="10" width="10" y="393" x="734" stroke-width="0" fill="#28343f"/>
  <rect stroke="#000" id="svg_803" height="10" width="10" y="373" x="674" stroke-width="0" fill="#28343f"/>
  <rect stroke="#000" id="svg_804" height="10" width="10" y="373" x="694" stroke-width="0" fill="#28343f"/>
  <rect stroke="#000" id="svg_805" height="10" width="10" y="373" x="714" stroke-width="0" fill="#28343f"/>
  <rect stroke="#000" id="svg_806" height="10" width="10" y="373" x="734" stroke-width="0" fill="#28343f"/>
  <rect stroke="#000" id="svg_807" height="10" width="10" y="373" x="754" stroke-width="0" fill="#1f2830"/>
  <rect stroke="#000" id="svg_808" height="10" width="10" y="373" x="774" stroke-width="0" fill="#28343f"/>
  <rect stroke="#000" id="svg_809" height="10" width="10" y="373" x="794" stroke-width="0" fill="#28343f"/>
  <rect stroke="#000" id="svg_812" height="10" width="10" y="393" x="574" stroke-width="0" fill="#28343f"/>
  <rect stroke="#000" id="svg_813" height="10" width="10" y="393" x="614" stroke-width="0" fill="#28343f"/>
  <rect stroke="#000" id="svg_814" height="10" width="10" y="393" x="634" stroke-width="0" fill="#28343f"/>
  <rect stroke="#000" id="svg_815" height="10" width="10" y="393" x="654" stroke-width="0" fill="#28343f"/>
  <rect stroke="#000" id="svg_818" height="10" width="10" y="373" x="574" stroke-width="0" fill="#28343f"/>
  <rect stroke="#000" id="svg_819" height="10" width="10" y="373" x="594" stroke-width="0" fill="#1f2830"/>
  <rect stroke="#000" id="svg_821" height="10" width="10" y="373" x="634" stroke-width="0" fill="#28343f"/>
  <rect stroke="#000" id="svg_822" height="10" width="10" y="373" x="654" stroke-width="0" fill="#28343f"/>
  <rect stroke="#000" id="svg_823" height="10" width="10" y="393" x="594" stroke-width="0" fill="#28343f"/>
  <rect stroke="#000" id="svg_824" height="10" width="10" y="393" x="774" stroke-width="0" fill="#28343f"/>
  <rect stroke="#000" id="svg_825" height="10" width="10" y="393" x="754" stroke-width="0" fill="#1f2830"/>
  <rect stroke="#000" id="svg_826" height="10" width="10" y="393" x="794" stroke-width="0" fill="#28343f"/>
  <rect stroke="#000" id="svg_827" height="10" width="10" y="433" x="154" stroke-width="0" fill="#28343f"/>
  <rect stroke="#000" id="svg_828" height="10" width="10" y="433" x="174" stroke-width="0" fill="#28343f"/>
  <rect stroke="#000" id="svg_829" height="10" width="10" y="433" x="194" stroke-width="0" fill="#28343f"/>
  <rect stroke="#000" id="svg_830" height="10" width="10" y="433" x="214" stroke-width="0" fill="#28343f"/>
  <rect stroke="#000" id="svg_831" height="10" width="10" y="413" x="154" stroke-width="0" fill="#28343f"/>
  <rect stroke="#000" id="svg_832" height="10" width="10" y="413" x="174" stroke-width="0" fill="#28343f"/>
  <rect stroke="#000" id="svg_833" height="10" width="10" y="413" x="194" stroke-width="0" fill="#28343f"/>
  <rect stroke="#000" id="svg_834" height="10" width="10" y="413" x="214" stroke-width="0" fill="#28343f"/>
  <rect stroke="#000" id="svg_835" height="10" width="10" y="413" x="234" stroke-width="0" fill="#28343f"/>
  <rect stroke="#000" id="svg_836" height="10" width="10" y="413" x="254" stroke-width="0" fill="#28343f"/>
  <rect stroke="#000" id="svg_837" height="10" width="10" y="413" x="274" stroke-width="0" fill="#28343f"/>
  <rect stroke="#000" id="svg_843" height="10" width="10" y="433" x="134" stroke-width="0" fill="#28343f"/>
  <rect stroke="#000" id="svg_846" height="10" width="10" y="413" x="54" stroke-width="0" fill="#28343f"/>
  <rect stroke="#000" id="svg_847" height="10" width="10" y="413" x="74" stroke-width="0" fill="#28343f"/>
  <rect stroke="#000" id="svg_848" height="10" width="10" y="413" x="94" stroke-width="0" fill="#28343f"/>
  <rect stroke="#000" id="svg_849" height="10" width="10" y="413" x="114" stroke-width="0" fill="#28343f"/>
  <rect stroke="#000" id="svg_850" height="10" width="10" y="413" x="134" stroke-width="0" fill="#28343f"/>
  <rect stroke="#000" id="svg_852" height="10" width="10" y="433" x="254" stroke-width="0" fill="#28343f"/>
  <rect stroke="#000" id="svg_853" height="10" width="10" y="433" x="234" stroke-width="0" fill="#28343f"/>
  <rect stroke="#000" id="svg_854" height="10" width="10" y="433" x="274" stroke-width="0" fill="#28343f"/>
  <rect stroke="#000" id="svg_1030" height="10" width="10" y="253" x="214" stroke-width="0" fill="#28343f"/>
  <rect stroke="#000" id="svg_1031" height="10" width="10" y="253" x="234" stroke-width="0" fill="#28343f"/>
  <rect stroke="#000" id="svg_1044" height="10" width="10" y="253" x="114" stroke-width="0" fill="#28343f"/>
  <rect stroke="#000" id="svg_1051" height="10" width="10" y="313" x="154" stroke-width="0" fill="#28343f"/>
  <rect stroke="#000" id="svg_1052" height="10" width="10" y="313" x="174" stroke-width="0" fill="#28343f"/>
  <rect stroke="#000" id="svg_1053" height="10" width="10" y="313" x="194" stroke-width="0" fill="#28343f"/>
  <rect stroke="#000" id="svg_1054" height="10" width="10" y="313" x="214" stroke-width="0" fill="#28343f"/>
  <rect stroke="#000" id="svg_1076" height="10" width="10" y="313" x="254" stroke-width="0" fill="#28343f"/>
  <rect stroke="#000" id="svg_1077" height="10" width="10" y="313" x="234" stroke-width="0" fill="#28343f"/>
  <rect stroke="#000" id="svg_1078" height="10" width="10" y="313" x="274" stroke-width="0" fill="#28343f"/>
  <rect stroke="#000" id="svg_1079" height="10" width="10" y="353" x="154" stroke-width="0" fill="#28343f"/>
  <rect stroke="#000" id="svg_1080" height="10" width="10" y="353" x="174" stroke-width="0" fill="#28343f"/>
  <rect stroke="#000" id="svg_1081" height="10" width="10" y="353" x="194" stroke-width="0" fill="#28343f"/>
  <rect stroke="#000" id="svg_1082" height="10" width="10" y="353" x="214" stroke-width="0" fill="#28343f"/>
  <rect stroke="#000" id="svg_1088" height="10" width="10" y="333" x="254" stroke-width="0" fill="#28343f"/>
  <rect stroke="#000" id="svg_1089" height="10" width="10" y="333" x="274" stroke-width="0" fill="#28343f"/>
  <rect stroke="#000" id="svg_1093" height="10" width="10" y="353" x="94" stroke-width="0" fill="#28343f"/>
  <rect stroke="#000" id="svg_1094" height="10" width="10" y="353" x="114" stroke-width="0" fill="#28343f"/>
  <rect stroke="#000" id="svg_1095" height="10" width="10" y="353" x="134" stroke-width="0" fill="#28343f"/>
  <rect stroke="#000" id="svg_1104" height="10" width="10" y="353" x="254" stroke-width="0" fill="#28343f"/>
  <rect stroke="#000" id="svg_1105" height="10" width="10" y="353" x="234" stroke-width="0" fill="#28343f"/>
  <rect stroke="#000" id="svg_1106" height="10" width="10" y="353" x="274" stroke-width="0" fill="#28343f"/>
  <rect stroke="#000" id="svg_1107" height="10" width="10" y="393" x="154" stroke-width="0" fill="#28343f"/>
  <rect stroke="#000" id="svg_1108" height="10" width="10" y="393" x="174" stroke-width="0" fill="#28343f"/>
  <rect stroke="#000" id="svg_1111" height="10" width="10" y="373" x="154" stroke-width="0" fill="#28343f"/>
  <rect stroke="#000" id="svg_1112" height="10" width="10" y="373" x="174" stroke-width="0" fill="#28343f"/>
  <rect stroke="#000" id="svg_1118" height="10" width="10" y="393" x="14" stroke-width="0" fill="#28343f"/>
  <rect stroke="#000" id="svg_1119" height="10" width="10" y="393" x="34" stroke-width="0" fill="#28343f"/>
  <rect stroke="#000" id="svg_1120" height="10" width="10" y="393" x="54" stroke-width="0" fill="#28343f"/>
  <rect stroke="#000" id="svg_1121" height="10" width="10" y="393" x="94" stroke-width="0" fill="#28343f"/>
  <rect stroke="#000" id="svg_1122" height="10" width="10" y="393" x="114" stroke-width="0" fill="#28343f"/>
  <rect stroke="#000" id="svg_1128" height="10" width="10" y="373" x="94" stroke-width="0" fill="#28343f"/>
  <rect stroke="#000" id="svg_1129" height="10" width="10" y="373" x="114" stroke-width="0" fill="#28343f"/>
  <rect stroke="#000" id="svg_1130" height="10" width="10" y="373" x="134" stroke-width="0" fill="#28343f"/>
  <rect stroke="#000" id="svg_1131" height="10" width="10" y="393" x="74" stroke-width="0" fill="#28343f"/>
  <rect stroke="#000" id="svg_1135" height="10" width="10" y="433" x="434" stroke-width="0" fill="#28343f"/>
  <rect stroke="#000" id="svg_1136" height="10" width="10" y="433" x="454" stroke-width="0" fill="#28343f"/>
  <rect stroke="#000" id="svg_1137" height="10" width="10" y="433" x="474" stroke-width="0" fill="#28343f"/>
  <rect stroke="#000" id="svg_1138" height="10" width="10" y="433" x="494" stroke-width="0" fill="#28343f"/>
  <rect stroke="#000" id="svg_1139" height="10" width="10" y="413" x="434" stroke-width="0" fill="#28343f"/>
  <rect stroke="#000" id="svg_1140" height="10" width="10" y="413" x="454" stroke-width="0" fill="#28343f"/>
  <rect stroke="#000" id="svg_1141" height="10" width="10" y="413" x="474" stroke-width="0" fill="#28343f"/>
  <rect stroke="#000" id="svg_1142" height="10" width="10" y="413" x="494" stroke-width="0" fill="#28343f"/>
  <rect stroke="#000" id="svg_1143" height="10" width="10" y="413" x="514" stroke-width="0" fill="#28343f"/>
  <rect stroke="#000" id="svg_1145" height="10" width="10" y="413" x="554" stroke-width="0" fill="#28343f"/>
  <rect stroke="#000" id="svg_1149" height="10" width="10" y="433" x="414" stroke-width="0" fill="#28343f"/>
  <rect stroke="#000" id="svg_1150" height="10" width="10" y="413" x="334" stroke-width="0" fill="#28343f"/>
  <rect stroke="#000" id="svg_1151" height="10" width="10" y="413" x="354" stroke-width="0" fill="#28343f"/>
  <rect stroke="#000" id="svg_1152" height="10" width="10" y="413" x="374" stroke-width="0" fill="#1f2830"/>
  <rect stroke="#000" id="svg_1153" height="10" width="10" y="413" x="394" stroke-width="0" fill="#28343f"/>
  <rect stroke="#000" id="svg_1154" height="10" width="10" y="413" x="414" stroke-width="0" fill="#28343f"/>
  <rect stroke="#000" id="svg_1156" height="10" width="10" y="433" x="534" stroke-width="0" fill="#1f2830"/>
  <rect stroke="#000" id="svg_1157" height="10" width="10" y="433" x="514" stroke-width="0" fill="#28343f"/>
  <rect stroke="#000" id="svg_1158" height="10" width="10" y="433" x="554" stroke-width="0" fill="#1f2830"/>
  <rect stroke="#000" id="svg_1263" height="10" width="10" y="173" x="514" stroke-width="0" fill="#28343f"/>
  <rect stroke="#000" id="svg_1267" height="10" width="10" y="193" x="374" stroke-width="0" fill="#28343f"/>
  <rect stroke="#000" id="svg_1268" height="10" width="10" y="193" x="394" stroke-width="0" fill="#28343f"/>
  <rect stroke="#000" id="svg_1269" height="10" width="10" y="193" x="414" stroke-width="0" fill="#28343f"/>
  <rect stroke="#000" id="svg_1273" height="10" width="10" y="173" x="394" stroke-width="0" fill="#28343f"/>
  <rect stroke="#000" id="svg_1276" height="10" width="10" y="193" x="534" stroke-width="0" fill="#28343f"/>
  <rect stroke="#000" id="svg_1277" height="10" width="10" y="193" x="514" stroke-width="0" fill="#28343f"/>
  <rect stroke="#000" id="svg_1279" height="10" width="10" y="233" x="434" stroke-width="0" fill="#28343f"/>
  <rect stroke="#000" id="svg_1283" height="10" width="10" y="213" x="434" stroke-width="0" fill="#28343f"/>
  <rect stroke="#000" id="svg_1288" height="10" width="10" y="213" x="534" stroke-width="0" fill="#28343f"/>
  <rect stroke="#000" id="svg_1291" height="10" width="10" y="233" x="374" stroke-width="0" fill="#28343f"/>
  <rect stroke="#000" id="svg_1292" height="10" width="10" y="233" x="394" stroke-width="0" fill="#28343f"/>
  <rect stroke="#000" id="svg_1293" height="10" width="10" y="233" x="414" stroke-width="0" fill="#28343f"/>
  <rect stroke="#000" id="svg_1298" height="10" width="10" y="213" x="414" stroke-width="0" fill="#28343f"/>
  <rect stroke="#000" id="svg_1300" height="10" width="10" y="233" x="534" stroke-width="0" fill="#28343f"/>
  <rect stroke="#000" id="svg_1301" height="10" width="10" y="233" x="514" stroke-width="0" fill="#28343f"/>
  <rect stroke="#000" id="svg_1302" height="10" width="10" y="233" x="554" stroke-width="0" fill="#28343f"/>
  <rect stroke="#000" id="svg_1303" height="10" width="10" y="273" x="434" stroke-width="0" fill="#28343f"/>
  <rect stroke="#000" id="svg_1307" height="10" width="10" y="253" x="434" stroke-width="0" fill="#28343f"/>
  <rect stroke="#000" id="svg_1311" height="10" width="10" y="253" x="514" stroke-width="0" fill="#28343f"/>
  <rect stroke="#000" id="svg_1312" height="10" width="10" y="253" x="534" stroke-width="0" fill="#28343f"/>
  <rect stroke="#000" id="svg_1314" height="10" width="10" y="273" x="334" stroke-width="0" fill="#28343f"/>
  <rect stroke="#000" id="svg_1315" height="10" width="10" y="273" x="374" stroke-width="0" fill="#28343f"/>
  <rect stroke="#000" id="svg_1316" height="10" width="10" y="273" x="394" stroke-width="0" fill="#28343f"/>
  <rect stroke="#000" id="svg_1317" height="10" width="10" y="273" x="414" stroke-width="0" fill="#28343f"/>
  <rect stroke="#000" id="svg_1318" height="10" width="10" y="253" x="334" stroke-width="0" fill="#28343f"/>
  <rect stroke="#000" id="svg_1319" height="10" width="10" y="253" x="354" stroke-width="0" fill="#28343f"/>
  <rect stroke="#000" id="svg_1320" height="10" width="10" y="253" x="374" stroke-width="0" fill="#28343f"/>
  <rect stroke="#000" id="svg_1321" height="10" width="10" y="253" x="394" stroke-width="0" fill="#28343f"/>
  <rect stroke="#000" id="svg_1322" height="10" width="10" y="253" x="414" stroke-width="0" fill="#28343f"/>
  <rect stroke="#000" id="svg_1323" height="10" width="10" y="273" x="354" stroke-width="0" fill="#28343f"/>
  <rect stroke="#000" id="svg_1324" height="10" width="10" y="273" x="534" stroke-width="0" fill="#28343f"/>
  <rect stroke="#000" id="svg_1325" height="10" width="10" y="273" x="514" stroke-width="0" fill="#28343f"/>
  <rect stroke="#000" id="svg_1326" height="10" width="10" y="273" x="554" stroke-width="0" fill="#28343f"/>
  <rect stroke="#000" id="svg_1330" height="10" width="10" y="313" x="494" stroke-width="0" fill="#28343f"/>
  <rect stroke="#000" id="svg_1331" height="10" width="10" y="293" x="434" stroke-width="0" fill="#28343f"/>
  <rect stroke="#000" id="svg_1332" height="10" width="10" y="293" x="454" stroke-width="0" fill="#28343f"/>
  <rect stroke="#000" id="svg_1333" height="10" width="10" y="293" x="474" stroke-width="0" fill="#28343f"/>
  <rect stroke="#000" id="svg_1334" height="10" width="10" y="293" x="494" stroke-width="0" fill="#28343f"/>
  <rect stroke="#000" id="svg_1335" height="10" width="10" y="293" x="514" stroke-width="0" fill="#28343f"/>
  <rect stroke="#000" id="svg_1336" height="10" width="10" y="293" x="534" stroke-width="0" fill="#28343f"/>
  <rect stroke="#000" id="svg_1337" height="10" width="10" y="293" x="554" stroke-width="0" fill="#1f2830"/>
  <rect stroke="#000" id="svg_1348" height="10" width="10" y="313" x="534" stroke-width="0" fill="#1f2830"/>
  <rect stroke="#000" id="svg_1349" height="10" width="10" y="313" x="514" stroke-width="0" fill="#28343f"/>
  <rect stroke="#000" id="svg_1350" height="10" width="10" y="313" x="554" stroke-width="0" fill="#1f2830"/>
  <rect stroke="#000" id="svg_1351" height="10" width="10" y="353" x="434" stroke-width="0" fill="#28343f"/>
  <rect stroke="#000" id="svg_1352" height="10" width="10" y="353" x="454" stroke-width="0" fill="#28343f"/>
  <rect stroke="#000" id="svg_1353" height="10" width="10" y="353" x="474" stroke-width="0" fill="#28343f"/>
  <rect stroke="#000" id="svg_1355" height="10" width="10" y="333" x="434" stroke-width="0" fill="#28343f"/>
  <rect stroke="#000" id="svg_1356" height="10" width="10" y="333" x="454" stroke-width="0" fill="#28343f"/>
  <rect stroke="#000" id="svg_1357" height="10" width="10" y="333" x="474" stroke-width="0" fill="#28343f"/>
  <rect stroke="#000" id="svg_1358" height="10" width="10" y="333" x="494" stroke-width="0" fill="#28343f"/>
  <rect stroke="#000" id="svg_1359" height="10" width="10" y="333" x="514" stroke-width="0" fill="#28343f"/>
  <rect stroke="#000" id="svg_1360" height="10" width="10" y="333" x="534" stroke-width="0" fill="#28343f"/>
  <rect stroke="#000" id="svg_1361" height="10" width="10" y="333" x="554" stroke-width="0" fill="#28343f"/>
  <rect stroke="#000" id="svg_1375" height="10" width="10" y="393" x="434" stroke-width="0" fill="#28343f"/>
  <rect stroke="#000" id="svg_1376" height="10" width="10" y="393" x="454" stroke-width="0" fill="#1f2830"/>
  <rect stroke="#000" id="svg_1377" height="10" width="10" y="393" x="474" stroke-width="0" fill="#28343f"/>
  <rect stroke="#000" id="svg_1379" height="10" width="10" y="373" x="434" stroke-width="0" fill="#28343f"/>
  <rect stroke="#000" id="svg_1380" height="10" width="10" y="373" x="454" stroke-width="0" fill="#28343f"/>
  <rect stroke="#000" id="svg_1381" height="10" width="10" y="373" x="474" stroke-width="0" fill="#28343f"/>
  <rect stroke="#000" id="svg_1382" height="10" width="10" y="373" x="494" stroke-width="0" fill="#28343f"/>
  <rect stroke="#000" id="svg_1383" height="10" width="10" y="373" x="514" stroke-width="0" fill="#28343f"/>
  <rect stroke="#000" id="svg_1384" height="10" width="10" y="373" x="534" stroke-width="0" fill="#28343f"/>
  <rect stroke="#000" id="svg_1385" height="10" width="10" y="373" x="554" stroke-width="0" fill="#28343f"/>
  <rect stroke="#000" id="svg_1386" height="10" width="10" y="393" x="334" stroke-width="0" fill="#28343f"/>
  <rect stroke="#000" id="svg_1387" height="10" width="10" y="393" x="374" stroke-width="0" fill="#1f2830"/>
  <rect stroke="#000" id="svg_1388" height="10" width="10" y="393" x="394" stroke-width="0" fill="#28343f"/>
  <rect stroke="#000" id="svg_1389" height="10" width="10" y="393" x="414" stroke-width="0" fill="#28343f"/>
  <rect stroke="#000" id="svg_1390" height="10" width="10" y="373" x="334" stroke-width="0" fill="#28343f"/>
  <rect stroke="#000" id="svg_1391" height="10" width="10" y="373" x="354" stroke-width="0" fill="#28343f"/>
  <rect stroke="#000" id="svg_1392" height="10" width="10" y="373" x="374" stroke-width="0" fill="#28343f"/>
  <rect stroke="#000" id="svg_1393" height="10" width="10" y="373" x="394" stroke-width="0" fill="#28343f"/>
  <rect stroke="#000" id="svg_1394" height="10" width="10" y="373" x="414" stroke-width="0" fill="#28343f"/>
  <rect stroke="#000" id="svg_1395" height="10" width="10" y="393" x="354" stroke-width="0" fill="#1f2830"/>
  <rect stroke="#000" id="svg_1398" height="10" width="10" y="393" x="554" stroke-width="0" fill="#28343f"/>
 </g>
</svg>