<svg width="800" height="600" xmlns="http://www.w3.org/2000/svg">
 <!-- Created with Method Draw - http://github.com/duopixel/Method-Draw/ -->
 <g>
  <title>background</title>
  <g display="none" overflow="visible" y="0" x="0" height="100%" width="100%" id="canvasGrid">
   <rect fill="url(#gridpattern)" stroke-width="0" y="0" x="0" height="100%" width="100%"/>
  </g>
 </g>
 <g>
  <title>Layer 1</title>
  <rect stroke="#000" id="svg_2" height="10" width="10" y="90" x="14" stroke-width="0" fill="#28343f"/>
  <rect stroke="#000" id="svg_3" height="10" width="10" y="90" x="34" stroke-width="0" fill="#28343f"/>
  <rect stroke="#000" id="svg_4" height="10" width="10" y="90" x="54" stroke-width="0" fill="#28343f"/>
  <rect stroke="#000" id="svg_5" height="10" width="10" y="90" x="74" stroke-width="0" fill="#28343f"/>
  <rect stroke="#000" id="svg_6" height="10" width="10" y="90" x="94" stroke-width="0" fill="#28343f"/>
  <rect stroke="#000" id="svg_7" height="10" width="10" y="90" x="114" stroke-width="0" fill="#28343f"/>
  <rect stroke="#000" id="svg_8" height="10" width="10" y="90" x="134" stroke-width="0" fill="#28343f"/>
  <rect stroke="#000" id="svg_9" height="10" width="10" y="50" x="154" stroke-width="0" fill="#28343f"/>
  <rect stroke="#000" id="svg_10" height="10" width="10" y="50" x="174" stroke-width="0" fill="#28343f"/>
  <rect stroke="#000" id="svg_11" height="10" width="10" y="50" x="194" stroke-width="0" fill="#28343f"/>
  <rect stroke="#000" id="svg_12" height="10" width="10" y="50" x="214" stroke-width="0" fill="#28343f"/>
  <rect stroke="#000" id="svg_23" height="10" width="10" y="70" x="14" stroke-width="0" fill="#28343f"/>
  <rect stroke="#000" id="svg_24" height="10" width="10" y="70" x="34" stroke-width="0" fill="#28343f"/>
  <rect stroke="#000" id="svg_25" height="10" width="10" y="70" x="54" stroke-width="0" fill="#28343f"/>
  <rect stroke="#000" id="svg_27" height="10" width="10" y="70" x="94" stroke-width="0" fill="#28343f"/>
  <rect stroke="#000" id="svg_28" height="10" width="10" y="70" x="114" stroke-width="0" fill="#28343f"/>
  <rect stroke="#000" id="svg_29" height="10" width="10" y="70" x="134" stroke-width="0" fill="#28343f"/>
  <rect stroke="#000" id="svg_30" height="10" width="10" y="30" x="154" stroke-width="0" fill="#28343f"/>
  <rect stroke="#000" id="svg_31" height="10" width="10" y="30" x="174" stroke-width="0" fill="#28343f"/>
  <rect stroke="#000" id="svg_32" height="10" width="10" y="30" x="194" stroke-width="0" fill="#28343f"/>
  <rect stroke="#000" id="svg_33" height="10" width="10" y="30" x="214" stroke-width="0" fill="#28343f"/>
  <rect stroke="#000" id="svg_34" height="10" width="10" y="30" x="234" stroke-width="0" fill="#28343f"/>
  <rect stroke="#000" id="svg_35" height="10" width="10" y="30" x="254" stroke-width="0" fill="#28343f"/>
  <rect stroke="#000" id="svg_36" height="10" width="10" y="30" x="274" stroke-width="0" fill="#28343f"/>
  <rect stroke="#000" id="svg_43" height="10" width="10" y="90" x="14" stroke-width="0" fill="#28343f"/>
  <rect stroke="#000" id="svg_44" height="10" width="10" y="90" x="34" stroke-width="0" fill="#28343f"/>
  <rect stroke="#000" id="svg_45" height="10" width="10" y="90" x="54" stroke-width="0" fill="#28343f"/>
  <rect stroke="#000" id="svg_46" height="10" width="10" y="90" x="74" stroke-width="0" fill="#28343f"/>
  <rect stroke="#000" id="svg_47" height="10" width="10" y="90" x="94" stroke-width="0" fill="#28343f"/>
  <rect stroke="#000" id="svg_48" height="10" width="10" y="90" x="114" stroke-width="0" fill="#28343f"/>
  <rect stroke="#000" id="svg_49" height="10" width="10" y="90" x="134" stroke-width="0" fill="#28343f"/>
  <rect stroke="#000" id="svg_50" height="10" width="10" y="50" x="154" stroke-width="0" fill="#28343f"/>
  <rect stroke="#000" id="svg_51" height="10" width="10" y="50" x="174" stroke-width="0" fill="#28343f"/>
  <rect stroke="#000" id="svg_52" height="10" width="10" y="70" x="14" stroke-width="0" fill="#28343f"/>
  <rect stroke="#000" id="svg_53" height="10" width="10" y="70" x="34" stroke-width="0" fill="#28343f"/>
  <rect stroke="#000" id="svg_54" height="10" width="10" y="70" x="54" stroke-width="0" fill="#28343f"/>
  <rect stroke="#000" id="svg_56" height="10" width="10" y="70" x="94" stroke-width="0" fill="#28343f"/>
  <rect stroke="#000" id="svg_57" height="10" width="10" y="70" x="114" stroke-width="0" fill="#28343f"/>
  <rect stroke="#000" id="svg_58" height="10" width="10" y="70" x="134" stroke-width="0" fill="#28343f"/>
  <rect stroke="#000" id="svg_59" height="10" width="10" y="30" x="154" stroke-width="0" fill="#28343f"/>
  <rect stroke="#000" id="svg_60" height="10" width="10" y="30" x="174" stroke-width="0" fill="#28343f"/>
  <rect stroke="#000" id="svg_61" height="10" width="10" y="50" x="14" stroke-width="0" fill="#28343f"/>
  <rect stroke="#000" id="svg_62" height="10" width="10" y="50" x="34" stroke-width="0" fill="#28343f"/>
  <rect stroke="#000" id="svg_63" height="10" width="10" y="50" x="54" stroke-width="0" fill="#28343f"/>
  <rect stroke="#000" id="svg_65" height="10" width="10" y="50" x="94" stroke-width="0" fill="#28343f"/>
  <rect stroke="#000" id="svg_66" height="10" width="10" y="50" x="114" stroke-width="0" fill="#28343f"/>
  <rect stroke="#000" id="svg_67" height="10" width="10" y="50" x="134" stroke-width="0" fill="#28343f"/>
  <rect stroke="#000" id="svg_68" height="10" width="10" y="30" x="14" stroke-width="0" fill="#28343f"/>
  <rect stroke="#000" id="svg_69" height="10" width="10" y="30" x="34" stroke-width="0" fill="#28343f"/>
  <rect stroke="#000" id="svg_70" height="10" width="10" y="30" x="54" stroke-width="0" fill="#28343f"/>
  <rect stroke="#000" id="svg_71" height="10" width="10" y="30" x="74" stroke-width="0" fill="#28343f"/>
  <rect stroke="#000" id="svg_72" height="10" width="10" y="30" x="94" stroke-width="0" fill="#28343f"/>
  <rect stroke="#000" id="svg_73" height="10" width="10" y="30" x="114" stroke-width="0" fill="#28343f"/>
  <rect stroke="#000" id="svg_74" height="10" width="10" y="30" x="134" stroke-width="0" fill="#28343f"/>
  <rect stroke="#000" id="svg_75" height="10" width="10" y="50" x="14" stroke-width="0" fill="#28343f"/>
  <rect stroke="#000" id="svg_76" height="10" width="10" y="50" x="34" stroke-width="0" fill="#28343f"/>
  <rect stroke="#000" id="svg_77" height="10" width="10" y="50" x="54" stroke-width="0" fill="#28343f"/>
  <rect stroke="#000" id="svg_79" height="10" width="10" y="50" x="94" stroke-width="0" fill="#28343f"/>
  <rect stroke="#000" id="svg_80" height="10" width="10" y="50" x="114" stroke-width="0" fill="#28343f"/>
  <rect stroke="#000" id="svg_81" height="10" width="10" y="50" x="134" stroke-width="0" fill="#28343f"/>
  <rect stroke="#000" id="svg_82" height="10" width="10" y="30" x="14" stroke-width="0" fill="#28343f"/>
  <rect stroke="#000" id="svg_83" height="10" width="10" y="30" x="34" stroke-width="0" fill="#28343f"/>
  <rect stroke="#000" id="svg_84" height="10" width="10" y="30" x="54" stroke-width="0" fill="#28343f"/>
  <rect stroke="#000" id="svg_85" height="10" width="10" y="30" x="74" stroke-width="0" fill="#28343f"/>
  <rect stroke="#000" id="svg_86" height="10" width="10" y="30" x="94" stroke-width="0" fill="#28343f"/>
  <rect stroke="#000" id="svg_87" height="10" width="10" y="30" x="114" stroke-width="0" fill="#28343f"/>
  <rect stroke="#000" id="svg_88" height="10" width="10" y="30" x="134" stroke-width="0" fill="#28343f"/>
  <rect stroke="#000" id="svg_89" height="10" width="10" y="270" x="34" stroke-width="0" fill="#28343f"/>
  <rect stroke="#000" id="svg_90" height="10" width="10" y="270" x="54" stroke-width="0" fill="#28343f"/>
  <rect stroke="#000" id="svg_91" height="10" width="10" y="110" x="54" stroke-width="0" fill="#28343f"/>
  <rect stroke="#000" id="svg_92" height="10" width="10" y="50" x="254" stroke-width="0" fill="#28343f"/>
  <rect stroke="#000" id="svg_93" height="10" width="10" y="210" x="74" stroke-width="0" fill="#28343f"/>
  <rect stroke="#000" id="svg_94" height="10" width="10" y="210" x="94" stroke-width="0" fill="#28343f"/>
  <rect stroke="#000" id="svg_95" height="10" width="10" y="270" x="34" stroke-width="0" fill="#28343f"/>
  <rect stroke="#000" id="svg_96" height="10" width="10" y="270" x="54" stroke-width="0" fill="#28343f"/>
  <rect stroke="#000" id="svg_97" height="10" width="10" y="110" x="54" stroke-width="0" fill="#28343f"/>
  <rect stroke="#000" id="svg_98" height="10" width="10" y="50" x="254" stroke-width="0" fill="#28343f"/>
  <rect stroke="#000" id="svg_99" height="10" width="10" y="210" x="74" stroke-width="0" fill="#28343f"/>
  <rect stroke="#000" id="svg_100" height="10" width="10" y="210" x="94" stroke-width="0" fill="#28343f"/>
  <rect stroke="#000" id="svg_101" height="10" width="10" y="110" x="14" stroke-width="0" fill="#28343f"/>
  <rect stroke="#000" id="svg_102" height="10" width="10" y="110" x="34" stroke-width="0" fill="#28343f"/>
  <rect stroke="#000" id="svg_103" height="10" width="10" y="110" x="14" stroke-width="0" fill="#28343f"/>
  <rect stroke="#000" id="svg_104" height="10" width="10" y="110" x="34" stroke-width="0" fill="#28343f"/>
  <rect stroke="#000" id="svg_108" height="10" width="10" y="110" x="174" stroke-width="0" fill="#28343f"/>
  <rect stroke="#000" id="svg_114" height="10" width="10" y="110" x="174" stroke-width="0" fill="#28343f"/>
  <rect stroke="#000" id="svg_117" height="10" width="10" y="50" x="294" stroke-width="0" fill="#28343f"/>
  <rect stroke="#000" id="svg_119" height="10" width="10" y="50" x="294" stroke-width="0" fill="#28343f"/>
  <rect stroke="#000" id="svg_121" height="10" width="10" y="150" x="14" stroke-width="0" fill="#28343f"/>
  <rect stroke="#000" id="svg_122" height="10" width="10" y="150" x="34" stroke-width="0" fill="#28343f"/>
  <rect stroke="#000" id="svg_123" height="10" width="10" y="130" x="14" stroke-width="0" fill="#28343f"/>
  <rect stroke="#000" id="svg_124" height="10" width="10" y="130" x="34" stroke-width="0" fill="#28343f"/>
  <rect stroke="#000" id="svg_125" height="10" width="10" y="150" x="14" stroke-width="0" fill="#28343f"/>
  <rect stroke="#000" id="svg_126" height="10" width="10" y="150" x="34" stroke-width="0" fill="#28343f"/>
  <rect stroke="#000" id="svg_127" height="10" width="10" y="130" x="14" stroke-width="0" fill="#28343f"/>
  <rect stroke="#000" id="svg_128" height="10" width="10" y="130" x="34" stroke-width="0" fill="#28343f"/>
  <rect stroke="#000" id="svg_137" height="10" width="10" y="190" x="74" stroke-width="0" fill="#28343f"/>
  <rect stroke="#000" id="svg_138" height="10" width="10" y="190" x="94" stroke-width="0" fill="#28343f"/>
  <rect stroke="#000" id="svg_139" height="10" width="10" y="110" x="254" stroke-width="0" fill="#28343f"/>
  <rect stroke="#000" id="svg_140" height="10" width="10" y="110" x="274" stroke-width="0" fill="#28343f"/>
  <rect stroke="#000" id="svg_141" height="10" width="10" y="190" x="74" stroke-width="0" fill="#28343f"/>
  <rect stroke="#000" id="svg_142" height="10" width="10" y="190" x="94" stroke-width="0" fill="#28343f"/>
  <rect stroke="#000" id="svg_143" height="10" width="10" y="110" x="254" stroke-width="0" fill="#28343f"/>
  <rect stroke="#000" id="svg_144" height="10" width="10" y="110" x="274" stroke-width="0" fill="#28343f"/>
  <rect stroke="#000" id="svg_145" height="10" width="10" y="190" x="14" stroke-width="0" fill="#28343f"/>
  <rect stroke="#000" id="svg_146" height="10" width="10" y="190" x="54" stroke-width="0" fill="#28343f"/>
  <rect stroke="#000" id="svg_147" height="10" width="10" y="170" x="34" stroke-width="0" fill="#28343f"/>
  <rect stroke="#000" id="svg_148" height="10" width="10" y="170" x="54" stroke-width="0" fill="#28343f"/>
  <rect stroke="#000" id="svg_149" height="10" width="10" y="190" x="14" stroke-width="0" fill="#28343f"/>
  <rect stroke="#000" id="svg_150" height="10" width="10" y="190" x="54" stroke-width="0" fill="#28343f"/>
  <rect stroke="#000" id="svg_151" height="10" width="10" y="170" x="34" stroke-width="0" fill="#28343f"/>
  <rect stroke="#000" id="svg_152" height="10" width="10" y="170" x="54" stroke-width="0" fill="#28343f"/>
  <rect stroke="#000" id="svg_153" height="10" width="10" y="230" x="14" stroke-width="0" fill="#28343f"/>
  <rect stroke="#000" id="svg_154" height="10" width="10" y="250" x="14" stroke-width="0" fill="#28343f"/>
  <rect stroke="#000" id="svg_155" height="10" width="10" y="210" x="14" stroke-width="0" fill="#28343f"/>
  <rect stroke="#000" id="svg_156" height="10" width="10" y="210" x="54" stroke-width="0" fill="#28343f"/>
  <rect stroke="#000" id="svg_157" height="10" width="10" y="230" x="14" stroke-width="0" fill="#28343f"/>
  <rect stroke="#000" id="svg_158" height="10" width="10" y="250" x="14" stroke-width="0" fill="#28343f"/>
  <rect stroke="#000" id="svg_159" height="10" width="10" y="210" x="14" stroke-width="0" fill="#28343f"/>
  <rect stroke="#000" id="svg_160" height="10" width="10" y="210" x="54" stroke-width="0" fill="#28343f"/>
  <rect stroke="#000" id="svg_161" height="10" width="10" y="190" x="34" stroke-width="0" fill="#28343f"/>
  <rect stroke="#000" id="svg_162" height="10" width="10" y="190" x="34" stroke-width="0" fill="#28343f"/>
  <rect stroke="#000" id="svg_163" height="10" width="10" y="230" x="34" stroke-width="0" fill="#28343f"/>
  <rect stroke="#000" id="svg_164" height="10" width="10" y="210" x="34" stroke-width="0" fill="#28343f"/>
  <rect stroke="#000" id="svg_165" height="10" width="10" y="230" x="34" stroke-width="0" fill="#28343f"/>
  <rect stroke="#000" id="svg_166" height="10" width="10" y="210" x="34" stroke-width="0" fill="#28343f"/>
  <rect stroke="#000" id="svg_167" height="10" width="10" y="230" x="74" stroke-width="0" fill="#28343f"/>
  <rect stroke="#000" id="svg_168" height="10" width="10" y="230" x="94" stroke-width="0" fill="#28343f"/>
  <rect stroke="#000" id="svg_169" height="10" width="10" y="230" x="74" stroke-width="0" fill="#28343f"/>
  <rect stroke="#000" id="svg_170" height="10" width="10" y="230" x="94" stroke-width="0" fill="#28343f"/>
  <rect stroke="#000" id="svg_171" height="10" width="10" y="230" x="54" stroke-width="0" fill="#28343f"/>
  <rect stroke="#000" id="svg_172" height="10" width="10" y="230" x="54" stroke-width="0" fill="#28343f"/>
  <rect stroke="#000" id="svg_173" height="10" width="10" y="250" x="34" stroke-width="0" fill="#28343f"/>
  <rect stroke="#000" id="svg_174" height="10" width="10" y="250" x="54" stroke-width="0" fill="#28343f"/>
  <rect stroke="#000" id="svg_175" height="10" width="10" y="250" x="34" stroke-width="0" fill="#28343f"/>
  <rect stroke="#000" id="svg_176" height="10" width="10" y="250" x="54" stroke-width="0" fill="#28343f"/>
  <rect stroke="#000" id="svg_177" height="10" width="10" y="110" x="74" stroke-width="0" fill="#28343f"/>
  <rect stroke="#000" id="svg_178" height="10" width="10" y="110" x="74" stroke-width="0" fill="#28343f"/>
  <rect stroke="#000" id="svg_179" height="10" width="10" y="150" x="114" stroke-width="0" fill="#28343f"/>
  <rect stroke="#000" id="svg_180" height="10" width="10" y="150" x="134" stroke-width="0" fill="#28343f"/>
  <rect stroke="#000" id="svg_181" height="10" width="10" y="110" x="154" stroke-width="0" fill="#28343f"/>
  <rect stroke="#000" id="svg_182" height="10" width="10" y="130" x="114" stroke-width="0" fill="#28343f"/>
  <rect stroke="#000" id="svg_183" height="10" width="10" y="130" x="134" stroke-width="0" fill="#28343f"/>
  <rect stroke="#000" id="svg_184" height="10" width="10" y="150" x="114" stroke-width="0" fill="#28343f"/>
  <rect stroke="#000" id="svg_185" height="10" width="10" y="150" x="134" stroke-width="0" fill="#28343f"/>
  <rect stroke="#000" id="svg_186" height="10" width="10" y="110" x="154" stroke-width="0" fill="#28343f"/>
  <rect stroke="#000" id="svg_187" height="10" width="10" y="130" x="114" stroke-width="0" fill="#28343f"/>
  <rect stroke="#000" id="svg_188" height="10" width="10" y="130" x="134" stroke-width="0" fill="#28343f"/>
  <rect stroke="#000" id="svg_189" height="10" width="10" y="110" x="114" stroke-width="0" fill="#28343f"/>
  <rect stroke="#000" id="svg_190" height="10" width="10" y="110" x="134" stroke-width="0" fill="#28343f"/>
  <rect stroke="#000" id="svg_191" height="10" width="10" y="110" x="114" stroke-width="0" fill="#28343f"/>
  <rect stroke="#000" id="svg_192" height="10" width="10" y="110" x="134" stroke-width="0" fill="#28343f"/>
  <rect stroke="#000" id="svg_193" height="10" width="10" y="150" x="74" stroke-width="0" fill="#28343f"/>
  <rect stroke="#000" id="svg_194" height="10" width="10" y="150" x="94" stroke-width="0" fill="#28343f"/>
  <rect stroke="#000" id="svg_195" height="10" width="10" y="130" x="74" stroke-width="0" fill="#28343f"/>
  <rect stroke="#000" id="svg_196" height="10" width="10" y="130" x="94" stroke-width="0" fill="#28343f"/>
  <rect stroke="#000" id="svg_197" height="10" width="10" y="150" x="54" stroke-width="0" fill="#28343f"/>
  <rect stroke="#000" id="svg_198" height="10" width="10" y="150" x="94" stroke-width="0" fill="#28343f"/>
  <rect stroke="#000" id="svg_199" height="10" width="10" y="130" x="74" stroke-width="0" fill="#28343f"/>
  <rect stroke="#000" id="svg_200" height="10" width="10" y="130" x="94" stroke-width="0" fill="#28343f"/>
  <rect stroke="#000" id="svg_201" height="10" width="10" y="170" x="74" stroke-width="0" fill="#28343f"/>
  <rect stroke="#000" id="svg_202" height="10" width="10" y="170" x="94" stroke-width="0" fill="#28343f"/>
  <rect stroke="#000" id="svg_203" height="10" width="10" y="170" x="74" stroke-width="0" fill="#28343f"/>
  <rect stroke="#000" id="svg_204" height="10" width="10" y="170" x="94" stroke-width="0" fill="#28343f"/>
  <rect stroke="#000" id="svg_205" height="10" width="10" y="130" x="154" stroke-width="0" fill="#28343f"/>
  <rect stroke="#000" id="svg_206" height="10" width="10" y="130" x="154" stroke-width="0" fill="#28343f"/>
  <rect stroke="#000" id="svg_207" height="10" width="10" y="170" x="194" stroke-width="0" fill="#28343f"/>
  <rect stroke="#000" id="svg_208" height="10" width="10" y="170" x="214" stroke-width="0" fill="#28343f"/>
  <rect stroke="#000" id="svg_209" height="10" width="10" y="130" x="234" stroke-width="0" fill="#28343f"/>
  <rect stroke="#000" id="svg_210" height="10" width="10" y="150" x="194" stroke-width="0" fill="#28343f"/>
  <rect stroke="#000" id="svg_211" height="10" width="10" y="150" x="214" stroke-width="0" fill="#28343f"/>
  <rect stroke="#000" id="svg_212" height="10" width="10" y="170" x="194" stroke-width="0" fill="#28343f"/>
  <rect stroke="#000" id="svg_213" height="10" width="10" y="170" x="214" stroke-width="0" fill="#28343f"/>
  <rect stroke="#000" id="svg_214" height="10" width="10" y="130" x="234" stroke-width="0" fill="#28343f"/>
  <rect stroke="#000" id="svg_215" height="10" width="10" y="150" x="194" stroke-width="0" fill="#28343f"/>
  <rect stroke="#000" id="svg_216" height="10" width="10" y="150" x="214" stroke-width="0" fill="#28343f"/>
  <rect stroke="#000" id="svg_217" height="10" width="10" y="130" x="194" stroke-width="0" fill="#28343f"/>
  <rect stroke="#000" id="svg_218" height="10" width="10" y="130" x="214" stroke-width="0" fill="#28343f"/>
  <rect stroke="#000" id="svg_219" height="10" width="10" y="130" x="194" stroke-width="0" fill="#28343f"/>
  <rect stroke="#000" id="svg_220" height="10" width="10" y="130" x="214" stroke-width="0" fill="#28343f"/>
  <rect stroke="#000" id="svg_221" height="10" width="10" y="170" x="154" stroke-width="0" fill="#28343f"/>
  <rect stroke="#000" id="svg_222" height="10" width="10" y="170" x="174" stroke-width="0" fill="#28343f"/>
  <rect stroke="#000" id="svg_223" height="10" width="10" y="150" x="154" stroke-width="0" fill="#28343f"/>
  <rect stroke="#000" id="svg_224" height="10" width="10" y="150" x="174" stroke-width="0" fill="#28343f"/>
  <rect stroke="#000" id="svg_225" height="10" width="10" y="170" x="154" stroke-width="0" fill="#28343f"/>
  <rect stroke="#000" id="svg_226" height="10" width="10" y="170" x="174" stroke-width="0" fill="#28343f"/>
  <rect stroke="#000" id="svg_227" height="10" width="10" y="150" x="154" stroke-width="0" fill="#28343f"/>
  <rect stroke="#000" id="svg_228" height="10" width="10" y="150" x="174" stroke-width="0" fill="#28343f"/>
  <rect stroke="#000" id="svg_229" height="10" width="10" y="190" x="154" stroke-width="0" fill="#28343f"/>
  <rect stroke="#000" id="svg_230" height="10" width="10" y="190" x="174" stroke-width="0" fill="#28343f"/>
  <rect stroke="#000" id="svg_231" height="10" width="10" y="190" x="154" stroke-width="0" fill="#28343f"/>
  <rect stroke="#000" id="svg_232" height="10" width="10" y="190" x="174" stroke-width="0" fill="#28343f"/>
  <rect stroke="#000" id="svg_233" height="10" width="10" y="150" x="74" stroke-width="0" fill="#28343f"/>
 </g>
</svg>